<svg width="8" height="8" viewBox="0 0 8 8" fill="none" xmlns="http://www.w3.org/2000/svg">
<path fill-rule="evenodd" clip-rule="evenodd" d="M5.7266 1.47002C5.7266 1.02669 6.0866 0.666687 6.52993 0.666687C6.97326 0.666687 7.33326 1.02669 7.33326 1.47002C7.33326 1.91335 6.97326 2.27335 6.52993 2.27335C6.0866 2.27335 5.7266 1.91335 5.7266 1.47002ZM4.44323 4.91978L5.40656 3.67678L5.39323 3.68345C5.44656 3.61011 5.45656 3.51678 5.4199 3.43345C5.38356 3.35011 5.30323 3.29345 5.2169 3.28678C5.12656 3.27678 5.0369 3.31678 4.98323 3.39011L4.1769 4.43345L3.25323 3.70678C3.19656 3.66345 3.1299 3.64645 3.06323 3.65345C2.9969 3.66345 2.9369 3.69978 2.89656 3.75311L1.91023 5.03678L1.8899 5.06678C1.83323 5.17311 1.8599 5.30978 1.9599 5.38345C2.00656 5.41345 2.05656 5.43345 2.11323 5.43345C2.19023 5.43678 2.26323 5.39645 2.3099 5.33345L3.14656 4.25645L4.09656 4.97011L4.12656 4.98978C4.23323 5.04645 4.36656 5.02011 4.44323 4.91978ZM5.1499 1.26012C5.13657 1.34345 5.1299 1.42678 5.1299 1.51012C5.1299 2.26012 5.73657 2.86645 6.48323 2.86645C6.56657 2.86645 6.64657 2.85678 6.7299 2.84345V5.53312C6.7299 6.66345 6.06323 7.33345 4.9299 7.33345H2.4669C1.33323 7.33345 0.666565 6.66345 0.666565 5.53312V3.06678C0.666565 1.93345 1.33323 1.26012 2.4669 1.26012H5.1499Z" fill="white"/>
</svg>
