<svg width="9" height="10" viewBox="0 0 9 10" fill="none" xmlns="http://www.w3.org/2000/svg">
<path fill-rule="evenodd" clip-rule="evenodd" d="M8.11267 4.38013L8.4335 6.87596C8.67142 8.50513 7.72517 9.16763 6.45433 9.16763H3.00017C1.72558 9.16763 0.750166 8.70929 1.01267 6.87596L1.33767 4.38013C1.38767 4.00929 1.56683 3.66346 1.846 3.40929C2.05892 3.22221 2.3335 3.12179 2.61683 3.12179V3.02596C2.5835 2.25513 2.97975 1.52596 3.646 1.13013C4.31267 0.734294 5.146 0.734294 5.81267 1.13013C6.47933 1.52596 6.871 2.25513 6.84183 3.02596V3.12179C7.36683 3.12179 7.921 3.48846 8.11267 4.38013ZM3.25017 3.02596C3.25017 2.21763 3.9085 1.5593 4.721 1.5593C5.53767 1.5593 6.196 2.21763 6.196 3.02596V3.11805H3.25017V3.02596ZM3.13766 4.83013C3.13766 5.03013 3.30433 5.1968 3.50849 5.1968C3.71266 5.1968 3.87516 5.03013 3.87516 4.83013C3.87516 4.62596 3.71266 4.46346 3.50849 4.46346C3.30433 4.46346 3.13766 4.62596 3.13766 4.83013ZM5.92517 5.1968C6.021 5.1968 6.11683 5.1593 6.1835 5.08846C6.25433 5.0218 6.29183 4.92596 6.29183 4.83013C6.29183 4.62596 6.12517 4.46346 5.92517 4.46346C5.72142 4.46346 5.55433 4.62596 5.55433 4.83013C5.55433 5.03013 5.72142 5.1968 5.92517 5.1968Z" fill="white"/>
</svg>
