<svg width="9" height="10" viewBox="0 0 9 10" fill="none" xmlns="http://www.w3.org/2000/svg">
<path fill-rule="evenodd" clip-rule="evenodd" d="M4.72013 0.833252C5.82388 0.833252 6.88638 1.27075 7.66555 2.05409C8.44888 2.83784 8.8868 3.89575 8.8868 5.00409C8.8868 6.46242 8.11972 7.81659 6.86972 8.57075C5.61972 9.32492 4.06555 9.36658 2.7743 8.67909H2.76138C2.69006 8.65046 2.62666 8.60955 2.5636 8.56885C2.5165 8.53846 2.4696 8.50819 2.41972 8.48325C2.29097 8.42909 2.14472 8.42075 2.0118 8.46284C1.70305 8.57075 1.39055 8.65825 1.06972 8.73325C0.90305 8.73742 0.85305 8.63742 0.85305 8.47492C0.92805 8.14575 1.02805 7.82034 1.14513 7.50409C1.19055 7.36659 1.17847 7.22075 1.10763 7.09117L1.0243 6.92909C0.71555 6.34159 0.553467 5.68742 0.553467 5.02534V4.99992C0.553467 3.89575 0.99055 2.83325 1.77388 2.05409C2.55722 1.27075 3.61555 0.833252 4.72013 0.833252ZM2.79888 5.53741C2.50305 5.53741 2.26555 5.29575 2.26555 5.00408C2.26555 4.70825 2.50305 4.47075 2.79888 4.47075C3.09055 4.47075 3.33263 4.70825 3.33263 5.00408C3.33263 5.29575 3.09055 5.53741 2.79888 5.53741ZM4.18639 5.00408C4.18639 5.29575 4.4243 5.53741 4.72014 5.53741C5.01597 5.53741 5.25305 5.29575 5.25305 5.00408C5.25305 4.70825 5.01597 4.47075 4.72014 4.47075C4.4243 4.47075 4.18639 4.70825 4.18639 5.00408ZM6.10764 5.00408C6.10764 5.29575 6.34889 5.53741 6.64056 5.53741C6.93639 5.53741 7.17389 5.29575 7.17389 5.00408C7.17389 4.70825 6.93639 4.47075 6.64056 4.47075C6.34889 4.47075 6.10764 4.70825 6.10764 5.00408Z" fill="#ffffff"/>
</svg>
