<svg width="8" height="8" viewBox="0 0 8 8" fill="none" xmlns="http://www.w3.org/2000/svg">
<path fill-rule="evenodd" clip-rule="evenodd" d="M4.48329 1.62668H5.50663C6.73663 1.62668 7.33663 2.28335 7.33329 3.63002V5.25335C7.33329 6.54002 6.53996 7.33335 5.24996 7.33335H2.74663C1.46329 7.33335 0.666626 6.54002 0.666626 5.25002V2.74668C0.666626 1.36668 1.27996 0.666683 2.48996 0.666683H3.01663C3.32696 0.66335 3.61663 0.806683 3.80663 1.05002L4.09996 1.44002C4.19329 1.55668 4.33329 1.62668 4.48329 1.62668ZM2.45663 5.09667H5.54329C5.67996 5.09667 5.78996 4.98334 5.78996 4.84667C5.78996 4.70667 5.67996 4.59667 5.54329 4.59667H2.45663C2.31663 4.59667 2.20663 4.70667 2.20663 4.84667C2.20663 4.98334 2.31663 5.09667 2.45663 5.09667Z" fill="white"/>
</svg>
