<svg width="9" height="8" viewBox="0 0 9 8" fill="none" xmlns="http://www.w3.org/2000/svg">
<path fill-rule="evenodd" clip-rule="evenodd" d="M6.32382 0.0420587C6.58674 0.0420587 6.84924 0.079142 7.09882 0.162892C8.63674 0.662892 9.1909 2.35039 8.72799 3.82539C8.46549 4.57914 8.03632 5.26706 7.47424 5.82914C6.66965 6.60831 5.78674 7.29998 4.83632 7.89581L4.73215 7.95873L4.62382 7.89164C3.67007 7.29998 2.78215 6.60831 1.97007 5.82498C1.41174 5.26289 0.982152 4.57914 0.715485 3.82539C0.244652 2.35039 0.798819 0.662892 2.3534 0.154142C2.47424 0.112475 2.59882 0.0833087 2.72382 0.0670587H2.77382C2.8909 0.0499754 3.00715 0.0420587 3.12382 0.0420587H3.16965C3.43215 0.0499754 3.68632 0.0958087 3.93257 0.179559H3.95715C3.97382 0.187475 3.98632 0.196225 3.99465 0.204142C4.08674 0.233725 4.17382 0.267059 4.25715 0.312892L4.41549 0.383725C4.45374 0.40413 4.49669 0.435308 4.5338 0.462254C4.55732 0.479327 4.57849 0.494701 4.59465 0.504559C4.60145 0.508571 4.60836 0.512605 4.61533 0.516673C4.65106 0.537527 4.68827 0.559251 4.71965 0.583309C5.18257 0.229559 5.74465 0.0378921 6.32382 0.0420587ZM7.43216 3.04197C7.60299 3.03739 7.74883 2.9003 7.76133 2.72489V2.6753C7.77383 2.09155 7.42008 1.5628 6.88216 1.35864C6.71133 1.29989 6.52383 1.39197 6.46133 1.56697C6.40299 1.74197 6.49466 1.93364 6.66966 1.99572C6.93674 2.09572 7.11549 2.35864 7.11549 2.64989V2.6628C7.10758 2.75822 7.13633 2.8503 7.19466 2.92114C7.25299 2.99197 7.34049 3.03322 7.43216 3.04197Z" fill="white"/>
</svg>
