<svg xmlns="http://www.w3.org/2000/svg" width="212" height="59" viewBox="0 0 212 59">
  <defs>
    <linearGradient id="light-a" x1="100%" x2="26.416%" y1="0%" y2="87.189%">
      <stop offset="0%" stop-color="#5C8FFF"/>
      <stop offset="100%" stop-color="#C14BFF"/>
    </linearGradient>
  </defs>
  <g fill="none">
    <path fill="url(#light-a)" d="M16.2816,0.2 C17.33376,0.2 18.1632,1.03968 18.1632,2.05088 C18.1632,2.79072 18.79296,3.38208 19.5456,3.38208 L22.03136,3.38208 C25.82528,3.40768 28.91776,6.43872 28.94336,10.14048 L28.94336,10.60896 C31.32672,10.60896 33.7152,10.6576 36.12672,10.68064 C44.84352,10.68064 51.2,16.89632 51.2,25.47744 L51.2,36.50336 C51.2,45.08704 44.84352,51.30016 36.12672,51.30016 C32.63488,51.37696 29.14304,51.4 25.6256,51.4 C22.10816,51.4 18.56512,51.3744 15.07328,51.30016 C6.35648,51.30016 0,45.08704 0,36.50336 L0,25.48 C0,16.89632 6.35648,10.6832 15.09888,10.6832 C18.39104,10.632 21.75488,10.5808 25.17248,10.5808 L25.17248,10.16352 C25.17248,8.46112 23.73888,7.08128 22.03136,7.08128 L19.5456,7.08128 C16.70656,7.08128 14.39488,4.81312 14.39488,2.05088 C14.39488,1.03968 15.24992,0.2 16.27904,0.2 L16.2816,0.2 Z M18.1376,24.6888468 C17.6419935,24.683502 17.1646266,24.8756855 16.81105,25.2230169 C16.4574733,25.5703484 16.256814,26.0442149 16.25344,26.53984 L16.25344,29.13056 L13.5936,29.13056 C12.5662842,29.1290016 11.7276091,29.9517237 11.70944,30.97888 C11.70944,32.01568 12.56448,32.82976 13.5936,32.82976 L16.256,32.82976 L16.256,35.44096 C16.256,36.45472 17.08544,37.2918422 18.14016,37.2918422 C19.1674758,37.2933984 20.0061509,36.4706763 20.02432,35.44352 L20.02432,32.82976 L22.66112,32.82976 C23.1571674,32.8359044 23.6351943,32.6440249 23.9893271,32.2966192 C24.3434599,31.9492135 24.5444709,31.474954 24.54784,30.97888 C24.5296709,29.9517237 23.6909958,29.1290016 22.66368,29.13056 L20.02688,29.13056 L20.02688,26.53984 C20.0100794,25.5106815 19.1694515,24.6860221 18.14016,24.6888468 L18.1376,24.6888468 Z M37.88544,33.44416 L37.632,33.44416 C36.6104941,33.44416 35.7824,34.2722541 35.7824,35.29376 C35.7824,36.3152659 36.6104941,37.14336 37.632,37.14336 L37.88288,37.14336 C38.3780462,37.1488183 38.8550264,36.956985 39.208529,36.6102066 C39.5620316,36.2634282 39.7629888,35.7902197 39.76704,35.29504 C39.7488709,34.2678837 38.9101958,33.4451616 37.88288,33.44672 L37.88544,33.44416 Z M33.5872,24.9628779 L33.33632,24.9628779 C32.3148141,24.9628779 31.48672,25.7909741 31.48672,26.81248 C31.48672,27.8339859 32.3148141,28.66208 33.33632,28.66208 L33.5872,28.66208 C34.0823662,28.6675383 34.5593464,28.475705 34.912849,28.1289266 C35.2663516,27.7821482 35.4673088,27.3089397 35.47136,26.81376 C35.4545726,25.7856003 34.6154956,24.9613439 33.5872,24.9628779 L33.5872,24.9628779 Z"/>
    <g fill="#FFF" transform="translate(70.4 7.236)">
      <path d="M15.4363636,39.8909091 C18.5151515,39.8909091 21.2121212,39.3242424 23.5272727,38.1909091 C25.8424242,37.0575758 27.6454545,35.4727273 28.9363636,33.4363636 C30.2272727,31.4 30.8727273,29.0242424 30.8727273,26.3090909 L30.8727273,26.3090909 L30.8727273,2.12727273 L23,2.12727273 L23,25.6363636 C23,27.0545455 22.6878788,28.3151515 22.0636364,29.4181818 C21.4393939,30.5212121 20.5606061,31.3878788 19.4272727,32.0181818 C18.2939394,32.6484848 16.9636364,32.9636364 15.4363636,32.9636364 C13.9212121,32.9636364 12.5939394,32.6484848 11.4545455,32.0181818 C10.3151515,31.3878788 9.43333333,30.5212121 8.80909091,29.4181818 C8.18484848,28.3151515 7.87272727,27.0545455 7.87272727,25.6363636 L7.87272727,25.6363636 L7.87272727,2.12727273 L9.09494702e-14,2.12727273 L9.09494702e-14,26.3090909 C9.09494702e-14,29.0242424 0.642424242,31.4 1.92727273,33.4363636 C3.21212121,35.4727273 5.01212121,37.0575758 7.32727273,38.1909091 C9.64242424,39.3242424 12.3454545,39.8909091 15.4363636,39.8909091 Z M44.9527521,39.3636364 L44.9527521,23.2181818 C44.9648733,22.0181818 45.1921461,20.9909091 45.6345703,20.1363636 C46.0769946,19.2818182 46.6951764,18.630303 47.4891158,18.1818182 C48.2830552,17.7333333 49.201237,17.5090909 50.2436612,17.5090909 C51.7951764,17.5090909 53.0133582,17.9909091 53.8982067,18.9545455 C54.7830552,19.9181818 55.2194188,21.2545455 55.2072976,22.9636364 L55.2072976,22.9636364 L55.2072976,39.3636364 L62.9527521,39.3636364 L62.9527521,21.5818182 C62.9527521,19.4121212 62.5527521,17.5424242 61.7527521,15.9727273 C60.9527521,14.4030303 59.83154,13.1939394 58.3891158,12.3454545 C56.9466915,11.4969697 55.2557824,11.0727273 53.3163885,11.0727273 C51.2436612,11.0727273 49.4800249,11.5484848 48.0254794,12.5 C46.5709339,13.4515152 45.5345703,14.7393939 44.9163885,16.3636364 L44.9163885,16.3636364 L44.5891158,16.3636364 L44.5891158,11.4363636 L37.2072976,11.4363636 L37.2072976,39.3636364 L44.9527521,39.3636364 Z M72.9563121,7.83636364 C74.1078273,7.83636364 75.0926758,7.45151515 75.9108576,6.68181818 C76.7290394,5.91212121 77.1381303,4.98787879 77.1381303,3.90909091 C77.1381303,2.84242424 76.7290394,1.92424242 75.9108576,1.15454545 C75.0926758,0.384848485 74.1017667,1.64845915e-13 72.9381303,1.64845915e-13 C71.7987364,1.64845915e-13 70.8169182,0.384848485 69.9926758,1.15454545 C69.1684334,1.92424242 68.7563121,2.84242424 68.7563121,3.90909091 C68.7563121,4.98787879 69.1684334,5.91212121 69.9926758,6.68181818 C70.8169182,7.45151515 71.804797,7.83636364 72.9563121,7.83636364 Z M76.7926758,39.3636364 L76.7926758,11.4363636 L69.0472212,11.4363636 L69.0472212,39.3636364 L76.7926758,39.3636364 Z M93.53175,39.7578045 L94.1453303,39.7454545 C95.1513909,39.7090909 96.0059363,39.6090909 96.7089666,39.4454545 C97.4119969,39.2818182 97.9574515,39.1393939 98.3453303,39.0181818 L98.3453303,39.0181818 L97.1271484,33.2545455 C96.933209,33.2909091 96.6544212,33.3424242 96.2907848,33.4090909 C95.9271484,33.4757576 95.5635121,33.5090909 95.1998757,33.5090909 C94.6786636,33.5090909 94.2210878,33.430303 93.8271484,33.2727273 C93.433209,33.1151515 93.1271484,32.8393939 92.9089666,32.4454545 C92.6907848,32.0515152 92.5816939,31.4969697 92.5816939,30.7818182 L92.5816939,30.7818182 L92.5812364,17.2548364 L97.8362393,17.2545455 L97.8362393,11.4363636 L92.5812364,11.4372364 L92.5816939,4.74545455 L84.8362393,4.74545455 L84.8356364,11.4372364 L81.0180575,11.4363636 L81.0180575,17.2545455 L84.8356364,17.2548364 L84.8362393,31.8 C84.8252201,33.4639118 85.1397705,34.8673679 85.7798907,36.0103681 L85.9816939,36.3454545 C86.7574515,37.5454545 87.8453303,38.430303 89.2453303,39 C90.6453303,39.569697 92.2786636,39.8181818 94.1453303,39.7454545 L93.53175,39.7578045 Z M107.647097,49.8363636 C109.562248,49.8363636 111.198612,49.530303 112.556188,48.9181818 C113.913764,48.3060606 115.038006,47.4393939 115.928915,46.3181818 C116.819824,45.1969697 117.525885,43.8848485 118.047097,42.3818182 L118.047097,42.3818182 L128.901642,11.4727273 L120.701642,11.4363636 L114.865279,31.9454545 L114.57437,31.9454545 L108.792551,11.4363636 L100.647097,11.4363636 L110.665279,40.1636364 L110.210733,41.3454545 C109.871339,42.2181818 109.431945,42.8363636 108.892551,43.2 C108.353158,43.5636364 107.716794,43.7333333 106.983461,43.7090909 C106.250127,43.6848485 105.428915,43.5333333 104.519824,43.2545455 L104.519824,43.2545455 L102.77437,49.0363636 C103.331945,49.2666667 104.038006,49.4575758 104.892551,49.6090909 C105.747097,49.7606061 106.665279,49.8363636 107.647097,49.8363636 Z"/>
      <polygon points="140.132 39.364 140.132 31.339 132.107 31.339 132.107 39.364"/>
    </g>
  </g>
</svg>
