<svg xmlns="http://www.w3.org/2000/svg" width="132" height="37" viewBox="0 0 132 37">
  <defs>
    <linearGradient id="logo-a" x1="100%" x2="26.416%" y1="0%" y2="87.189%">
      <stop offset="0%" stop-color="#5C8FFF"/>
      <stop offset="100%" stop-color="#C14BFF"/>
    </linearGradient>
  </defs>
  <g fill="none">
    <path fill="url(#logo-a)" d="M10.176,0 C10.8336,0 11.352,0.5248 11.352,1.1568 C11.352,1.6192 11.7456,1.9888 12.216,1.9888 L13.7696,1.9888 C16.1408,2.0048 18.0736,3.8992 18.0896,6.2128 L18.0896,6.5056 C19.5792,6.5056 21.072,6.536 22.5792,6.5504 C28.0272,6.5504 32,10.4352 32,15.7984 L32,22.6896 C32,28.0544 28.0272,31.9376 22.5792,31.9376 C20.3968,31.9856 18.2144,32 16.016,32 C13.8176,32 11.6032,31.984 9.4208,31.9376 C3.9728,31.9376 0,28.0544 0,22.6896 L0,15.8 C0,10.4352 3.9728,6.552 9.4368,6.552 C11.4944,6.52 13.5968,6.488 15.7328,6.488 L15.7328,6.2272 C15.7328,5.1632 14.8368,4.3008 13.7696,4.3008 L12.216,4.3008 C10.4416,4.3008 8.9968,2.8832 8.9968,1.1568 C8.9968,0.5248 9.5312,0 10.1744,0 L10.176,0 Z M11.336,15.3055293 C11.0262459,15.3021887 10.7278917,15.4223034 10.5069062,15.6393856 C10.2859208,15.8564677 10.1605088,16.1526343 10.1584,16.4624 L10.1584,18.0816 L8.496,18.0816 C7.85392763,18.080626 7.32975566,18.5948273 7.3184,19.2368 C7.3184,19.8848 7.8528,20.3936 8.496,20.3936 L10.16,20.3936 L10.16,22.0256 C10.16,22.6592 10.6784,23.1824014 11.3376,23.1824014 C11.9796724,23.183374 12.5038443,22.6691727 12.5152,22.0272 L12.5152,20.3936 L14.1632,20.3936 C14.4732296,20.3974402 14.7719965,20.2775156 14.9933294,20.060387 C15.2146624,19.8432584 15.3402943,19.5468462 15.3424,19.2368 C15.3310443,18.5948273 14.8068724,18.080626 14.1648,18.0816 L12.5168,18.0816 L12.5168,16.4624 C12.5062996,15.8191759 11.9809072,15.3037638 11.3376,15.3055293 L11.336,15.3055293 Z M23.6784,20.7776 L23.52,20.7776 C22.8815588,20.7776 22.364,21.2951588 22.364,21.9336 C22.364,22.5720412 22.8815588,23.0896 23.52,23.0896 L23.6768,23.0896 C23.9862789,23.0930114 24.2843915,22.9731156 24.5053306,22.7563791 C24.7262698,22.5396426 24.851868,22.2438873 24.8544,21.9344 C24.8430443,21.2924273 24.3188724,20.778226 23.6768,20.7792 L23.6784,20.7776 Z M20.992,15.4767987 L20.8352,15.4767987 C20.1967588,15.4767987 19.6792,15.9943588 19.6792,16.6328 C19.6792,17.2712412 20.1967588,17.7888 20.8352,17.7888 L20.992,17.7888 C21.3014789,17.7922114 21.5995915,17.6723156 21.8205306,17.4555791 C22.0414698,17.2388426 22.167068,16.9430873 22.1696,16.6336 C22.1591079,15.9910002 21.6346847,15.4758399 20.992,15.4767987 L20.992,15.4767987 Z"/>
    <g transform="translate(44 4.398)">
      <path fill="#11142D" d="M9.64772727,24.9318182 C11.5719697,24.9318182 13.2575758,24.5776515 14.7045455,23.8693182 C16.1515152,23.1609848 17.2784091,22.1704545 18.0852273,20.8977273 C18.8920455,19.625 19.2954545,18.1401515 19.2954545,16.4431818 L19.2954545,16.4431818 L19.2954545,1.32954545 L14.375,1.32954545 L14.375,16.0227273 C14.375,16.9090909 14.1799242,17.6969697 13.7897727,18.3863636 C13.3996212,19.0757576 12.8503788,19.6174242 12.1420455,20.0113636 C11.4337121,20.405303 10.6022727,20.6022727 9.64772727,20.6022727 C8.70075758,20.6022727 7.87121212,20.405303 7.15909091,20.0113636 C6.4469697,19.6174242 5.89583333,19.0757576 5.50568182,18.3863636 C5.1155303,17.6969697 4.92045455,16.9090909 4.92045455,16.0227273 L4.92045455,16.0227273 L4.92045455,1.32954545 L5.68434189e-14,1.32954545 L5.68434189e-14,16.4431818 C5.68434189e-14,18.1401515 0.401515152,19.625 1.20454545,20.8977273 C2.00757576,22.1704545 3.13257576,23.1609848 4.57954545,23.8693182 C6.02651515,24.5776515 7.71590909,24.9318182 9.64772727,24.9318182 Z M28.0954701,24.6022727 L28.0954701,14.5113636 C28.1030458,13.7613636 28.2450913,13.1193182 28.5216064,12.5852273 C28.7981216,12.0511364 29.1844852,11.6439394 29.6806974,11.3636364 C30.1769095,11.0833333 30.7507731,10.9431818 31.4022883,10.9431818 C32.3719852,10.9431818 33.1333489,11.2443182 33.6863792,11.8465909 C34.2394095,12.4488636 34.5121367,13.2840909 34.504561,14.3522727 L34.504561,14.3522727 L34.504561,24.6022727 L39.3454701,24.6022727 L39.3454701,13.4886364 C39.3454701,12.1325758 39.0954701,10.9640152 38.5954701,9.98295455 C38.0954701,9.00189394 37.3947125,8.24621212 36.4931974,7.71590909 C35.5916822,7.18560606 34.534864,6.92045455 33.3227428,6.92045455 C32.0272883,6.92045455 30.9250155,7.21780303 30.0159246,7.8125 C29.1068337,8.40719697 28.4591064,9.21212121 28.0727428,10.2272727 L28.0727428,10.2272727 L27.8681974,10.2272727 L27.8681974,7.14772727 L23.254561,7.14772727 L23.254561,24.6022727 L28.0954701,24.6022727 Z M45.5976951,4.89772727 C46.3173921,4.89772727 46.9329224,4.65719697 47.444286,4.17613636 C47.9556496,3.69507576 48.2113315,3.11742424 48.2113315,2.44318182 C48.2113315,1.77651515 47.9556496,1.20265152 47.444286,0.721590909 C46.9329224,0.240530303 46.3136042,1.03028697e-13 45.5863315,1.03028697e-13 C44.8742102,1.03028697e-13 44.2605739,0.240530303 43.7454224,0.721590909 C43.2302708,1.20265152 42.9726951,1.77651515 42.9726951,2.44318182 C42.9726951,3.11742424 43.2302708,3.69507576 43.7454224,4.17613636 C44.2605739,4.65719697 44.8779981,4.89772727 45.5976951,4.89772727 Z M47.9954224,24.6022727 L47.9954224,7.14772727 L43.1545133,7.14772727 L43.1545133,24.6022727 L47.9954224,24.6022727 Z M58.4573438,24.8486278 L58.8408314,24.8409091 C59.4696193,24.8181818 60.0037102,24.7556818 60.4431041,24.6534091 C60.8824981,24.5511364 61.2234072,24.4621212 61.4658314,24.3863636 L61.4658314,24.3863636 L60.7044678,20.7840909 C60.5832557,20.8068182 60.4090132,20.8390152 60.1817405,20.8806818 C59.9544678,20.9223485 59.727195,20.9431818 59.4999223,20.9431818 C59.1741647,20.9431818 58.8881799,20.8939394 58.6419678,20.7954545 C58.3957557,20.6969697 58.2044678,20.5246212 58.0681041,20.2784091 C57.9317405,20.032197 57.8635587,19.6856061 57.8635587,19.2386364 L57.8635587,19.2386364 L57.8632727,10.7842727 L61.1476496,10.7840909 L61.1476496,7.14772727 L57.8632727,7.14827273 L57.8635587,2.96590909 L53.0226496,2.96590909 L53.0222727,7.14827273 L50.636286,7.14772727 L50.636286,10.7840909 L53.0222727,10.7842727 L53.0226496,19.875 C53.0157625,20.9149449 53.2123566,21.7921049 53.6124317,22.5064801 L53.7385587,22.7159091 C54.2234072,23.4659091 54.9033314,24.0189394 55.7783314,24.375 C56.6533314,24.7310606 57.6741647,24.8863636 58.8408314,24.8409091 L58.4573438,24.8486278 Z M67.2794356,31.1477273 C68.4764053,31.1477273 69.4991326,30.9564394 70.3476174,30.5738636 C71.1961023,30.1912879 71.8987538,29.6496212 72.455572,28.9488636 C73.0123901,28.2481061 73.453678,27.4280303 73.7794356,26.4886364 L73.7794356,26.4886364 L80.5635265,7.17045455 L75.4385265,7.14772727 L71.7907992,19.9659091 L71.608981,19.9659091 L67.9953447,7.14772727 L62.9044356,7.14772727 L69.1657992,25.1022727 L68.8817083,25.8409091 C68.6695871,26.3863636 68.3949659,26.7727273 68.0578447,27 C67.7207235,27.2272727 67.3229962,27.3333333 66.8646629,27.3181818 C66.4063295,27.3030303 65.893072,27.2083333 65.3248901,27.0340909 L65.3248901,27.0340909 L64.233981,30.6477273 C64.5824659,30.7916667 65.0237538,30.9109848 65.5578447,31.0056818 C66.0919356,31.1003788 66.6657992,31.1477273 67.2794356,31.1477273 Z"/>
      <polygon fill="#6C5DD3" points="87.582 24.602 87.582 19.587 82.567 19.587 82.567 24.602"/>
    </g>
  </g>
</svg>
