<svg width="9" height="8" viewBox="0 0 9 8" fill="none" xmlns="http://www.w3.org/2000/svg">
<path fill-rule="evenodd" clip-rule="evenodd" d="M6.77781 0.25C7.33656 0.25 7.87406 0.470833 8.26947 0.867083C8.66531 1.2625 8.88656 1.79583 8.88656 2.35417V5.64583C8.88656 6.80833 7.94072 7.75 6.77781 7.75H2.66156C1.49864 7.75 0.553223 6.80833 0.553223 5.64583V2.35417C0.553223 1.19167 1.49447 0.25 2.66156 0.25H6.77781ZM7.44072 2.975L7.47405 2.94167C7.57364 2.82084 7.57364 2.64584 7.46947 2.525C7.41155 2.46292 7.33197 2.425 7.24905 2.41667C7.16155 2.41209 7.07822 2.44167 7.0153 2.5L5.13655 4C4.89489 4.20042 4.54864 4.20042 4.30322 4L2.42822 2.5C2.29864 2.40417 2.11947 2.41667 2.01155 2.52917C1.89905 2.64167 1.88655 2.82084 1.98197 2.94584L2.03655 3L3.93239 4.47917C4.16572 4.6625 4.44864 4.7625 4.74489 4.7625C5.0403 4.7625 5.32822 4.6625 5.56114 4.47917L7.44072 2.975Z" fill="white"/>
</svg>
