<?xml version="1.0" encoding="UTF-8"?><!DOCTYPE svg PUBLIC "-//W3C//DTD SVG 1.1//EN" "http://www.w3.org/Graphics/SVG/1.1/DTD/svg11.dtd"><svg xmlns="http://www.w3.org/2000/svg"><symbol id="icon-add-square" viewBox="0 0 22 22">
    <path d="M15.686.25c3.646 0 6.064 2.598 6.064 6.335v8.83c0 3.737-2.42 6.335-6.064 6.335h-9.37C2.67 21.75.25 19.152.25 15.415v-8.83C.25 2.85 2.675.25 6.314.25zm0 1.5h-9.37c-2.786 0-4.564 1.907-4.564 4.835v8.83c0 2.932 1.772 4.835 4.564 4.835h9.37c2.792 0 4.564-1.903 4.564-4.835v-8.83c0-2.932-1.772-4.835-4.564-4.835zM11 6.577a.75.75 0 0 1 .743.648l.007.102v2.913h2.918a.75.75 0 0 1 .102 1.493l-.102.007H11.75v2.914a.75.75 0 0 1-1.493.102l-.007-.102V11.74H7.333a.75.75 0 0 1-.102-1.493l.102-.007h2.916V7.327a.75.75 0 0 1 .75-.75z"/>
</symbol><symbol id="icon-add" viewBox="0 0 22 22">
    <path d="M11 0c6.075 0 11 4.925 11 11s-4.925 11-11 11S0 17.075 0 11 4.925 0 11 0zm0 2a9 9 0 1 0 0 18 9 9 0 0 0 0-18zm0 3a1 1 0 0 1 .993.883L12 6v4h4a1 1 0 0 1 .117 1.993L16 12h-4v4a1 1 0 0 1-1.993.117L10 16v-4H6a1 1 0 0 1-.117-1.993L6 10h4V6a1 1 0 0 1 1-1z"/>
</symbol><symbol id="icon-arrow-down-fat" viewBox="0 0 8 6">
    <path d="M.626.96a1 1 0 0 1 1.32-.084L2.04.96 4 2.919 5.96.959A1 1 0 0 1 7.28.877l.094.084a1 1 0 0 1 .083 1.32l-.083.094L4.707 5.04a1 1 0 0 1-1.32.084l-.094-.084L.626 2.374a1 1 0 0 1 0-1.414z"/>
</symbol><symbol id="icon-arrow-down" viewBox="0 0 10 6">
    <path d="M9.707.293a1 1 0 0 1 .083 1.32l-.083.094-4 4a1 1 0 0 1-1.32.083l-.094-.083-4-4A1 1 0 0 1 1.613.21l.094.083L5 3.584 8.293.293A1 1 0 0 1 9.613.21l.094.083z"/>
</symbol><symbol id="icon-arrow-left" viewBox="0 0 13 10">
    <path d="M5.707.293a1 1 0 0 1 .083 1.32l-.083.094L3.415 4h7.914a1 1 0 0 1 .117 1.993L11.33 6H3.415l2.292 2.293a1 1 0 0 1 .083 1.32l-.083.094a1 1 0 0 1-1.32.083l-.094-.083-4-4-.073-.082.073.082a1.01 1.01 0 0 1-.097-.112l-.05-.075-.02-.037-.03-.06L.07 5.37l-.02-.058-.014-.046L.02 5.2l-.01-.052L.004 5.1 0 5.02v-.038l.004-.07L0 5a1.01 1.01 0 0 1 .011-.149L.02 4.8l.015-.065.014-.046.02-.06.023-.052.03-.06.02-.036.05-.074.013-.018a.99.99 0 0 1 .083-.094l4-4a1 1 0 0 1 1.414 0z"/>
</symbol><symbol id="icon-arrow-next" viewBox="0 0 6 10">
    <path d="M.293.293A1 1 0 0 1 1.613.21l.094.083 4 4a1 1 0 0 1 .083 1.32l-.083.094-4 4A1 1 0 0 1 .21 8.387l.083-.094L3.584 5 .293 1.707A1 1 0 0 1 .21.387L.293.293z"/>
</symbol><symbol id="icon-arrow-prev" viewBox="0 0 6 10">
    <path d="M5.707 9.707a1 1 0 0 1-1.32.083l-.094-.083-4-4a1 1 0 0 1-.083-1.32l.083-.094 4-4a1 1 0 0 1 1.497 1.32l-.083.094L2.416 5l3.291 3.293a1 1 0 0 1 .083 1.32l-.083.094z"/>
</symbol><symbol id="icon-arrow-right" viewBox="0 0 13 10">
    <path d="M7.293 9.707a1 1 0 0 1-.083-1.32l.083-.094L9.585 6H1.671a1 1 0 0 1-.117-1.993L1.67 4h7.915L7.293 1.707A1 1 0 0 1 7.21.387l.083-.094A1 1 0 0 1 8.613.21l.094.083 4 4 .073.082-.073-.082c.035.035.067.072.097.112l.05.075.02.037.03.06.026.053.02.058.014.046.016.066.01.052.006.048.004.08v.038l-.004.07L13 5c0 .05-.004.1-.011.149l-.009.051-.015.065-.014.046-.02.06-.023.052-.03.06-.02.036-.05.074-.013.018a.99.99 0 0 1-.083.094l-4 4a1 1 0 0 1-1.414 0l-.005.002z"/>
</symbol><symbol id="icon-arrow-up-right" viewBox="0 0 10 11">
    <path d="M8.388 8.625a1 1 0 0 1-.992-.875l-.008-.125.001-3.243L1.79 9.98A1 1 0 0 1 .299 8.652l.078-.087 5.596-5.596H2.73a1 1 0 0 1-.992-.875l-.008-.125a1 1 0 0 1 .875-.992L2.73.968h5.657l.1.006-.1-.006a1.01 1.01 0 0 1 .147.011l.088.017.04.01.065.02.052.02.057.027.042.023.057.035.043.03.046.037.052.047.027.027.047.053-.06-.066a1.01 1.01 0 0 1 .098.113l.03.043.035.057.023.043.027.057.02.053.02.065.01.04.017.088.003.022c.005.045.008.085.008.125v5.657a1 1 0 0 1-1 1z"/>
</symbol><symbol id="icon-arrows" viewBox="0 0 10 16">
    <path d="M1.613 10.2l.094.083L5 13.585l3.293-3.292a1 1 0 0 1 1.32-.083l.094.083a1 1 0 0 1 .083 1.32l-.083.094-4 4a1 1 0 0 1-1.32.083l-.094-.083-4-4a1 1 0 0 1 1.32-1.497zm4-10l.094.083 4 4a1 1 0 0 1-1.32 1.497l-.094-.083L5 2.416l-3.293 3.29a1 1 0 0 1-1.32.083l-.094-.083a1 1 0 0 1-.083-1.32l.083-.094 4-4A1 1 0 0 1 5.613.21z"/>
</symbol><symbol id="icon-bell" viewBox="0 0 20 22">
    <path d="M12.837 19.267a.75.75 0 0 1 .114 1.054 3.53 3.53 0 0 1-.65.627 3.84 3.84 0 0 1-2.798.774 3.81 3.81 0 0 1-2.536-1.404.75.75 0 1 1 1.173-.935 2.31 2.31 0 0 0 1.538.849c.6.072 1.223-.098 1.715-.48.145-.108.275-.234.388-.373a.75.75 0 0 1 1.054-.114zM10.04.25c3.664 0 7.027 2.626 7.364 6.112l.01.13.014.264.006.3v.724l.005.33.01.21.048.2c.153.56.422 1.084.79 1.54l.164.19.067.085a4.28 4.28 0 0 1 .731 2.23l-.001.434c-.03.97-.39 1.904-1.05 2.683a5.249 5.249 0 0 1-3.315 1.6c-3.25.348-6.526.348-9.766.001a5.32 5.32 0 0 1-3.358-1.64 4.324 4.324 0 0 1-1.007-2.86l.001-.256a4.35 4.35 0 0 1 .726-2.197l.073-.093a4.12 4.12 0 0 0 1.01-1.957l-.016.065.003-.574.013-.64.046-.777C2.933 2.878 6.295.25 9.96.25zm0 1.5h-.08c-2.936 0-5.61 2.09-5.86 4.742l-.03.454-.017.5-.007.988-.016.152a5.62 5.62 0 0 1-1.377 2.67l.054-.06-.096.157a2.84 2.84 0 0 0-.34 1l-.02.205v.235c-.015.685.22 1.353.625 1.844a3.81 3.81 0 0 0 2.392 1.145 44.36 44.36 0 0 0 9.467-.001 3.74 3.74 0 0 0 2.347-1.108 2.83 2.83 0 0 0 .667-1.906v-.176a2.76 2.76 0 0 0-.473-1.422l.017.027-.15-.174a5.695 5.695 0 0 1-1.102-2.147l-.07-.296-.014-.1-.007-.107-.013-.324-.003-.972-.002-.172-.012-.286-.01-.13c-.257-2.658-2.935-4.75-5.87-4.75z"/>
</symbol><symbol id="icon-bookmarks" viewBox="0 0 14 16">
    <path d="M10 2a2 2 0 0 1 2 2v11.5a.5.5 0 0 1-.794.404L6 12.118.794 15.904a.5.5 0 0 1-.787-.32L0 15.5V4a2 2 0 0 1 2-2zm0 1H2a1 1 0 0 0-1 1v10.517l4.706-3.42a.5.5 0 0 1 .51-.047l.08.047L11 14.518V4a1 1 0 0 0-.883-.993L10 3zm2-3a2 2 0 0 1 1.995 1.851L14 2v11a.5.5 0 0 1-.992.09L13 13V2a1 1 0 0 0-.883-.993L12 1H4a.5.5 0 0 1-.09-.992L4 0h8z"/>
</symbol><symbol id="icon-box" viewBox="0 0 18 16">
    <path d="M14.5 5.5a1 1 0 0 1 .993.883l.007.117v8a1 1 0 0 1-.883.993l-.117.007h-11a1 1 0 0 1-.993-.883L2.5 14.5v-8a1 1 0 0 1 1.993-.117L4.5 6.5v7h9v-7a1 1 0 0 1 .883-.993L14.5 5.5zm-3 1a1 1 0 0 1 1 1v3a1 1 0 0 1-1 1h-5a1 1 0 0 1-1-1v-3a1 1 0 0 1 1-1zm-1 2h-3v1h3v-1zm6-8a1 1 0 0 1 1 1v3a1 1 0 0 1-1 1h-15a1 1 0 0 1-1-1v-3a1 1 0 0 1 1-1zm-1 2h-13v1h13v-1z"/>
</symbol><symbol id="icon-camera" viewBox="0 0 21 20">
    <path d="M11 .25A4.75 4.75 0 0 1 15.75 5v1.135l.643-.462a2.75 2.75 0 0 1 4.348 2.016l.008.215v4.19a2.75 2.75 0 0 1-4.177 2.351l-.18-.12-.643-.463V15a4.75 4.75 0 0 1-4.533 4.745L11 19.75H5A4.75 4.75 0 0 1 .25 15V5A4.75 4.75 0 0 1 5 .25zm0 1.5H5A3.25 3.25 0 0 0 1.75 5v10A3.25 3.25 0 0 0 5 18.25h6A3.25 3.25 0 0 0 14.25 15V5A3.25 3.25 0 0 0 11 1.75zm6.384 5.066l-.115.074-1.52 1.093v4.033l1.52 1.094a1.25 1.25 0 0 0 1.974-.887l.006-.128v-4.19a1.25 1.25 0 0 0-1.866-1.088z"/>
</symbol><symbol id="icon-chart" viewBox="0 0 22 22">
    <path d="M15.686.25c3.646 0 6.064 2.598 6.064 6.335v8.83c0 3.737-2.42 6.335-6.064 6.335h-9.37C2.67 21.75.25 19.152.25 15.415v-8.83C.25 2.85 2.675.25 6.314.25zm0 1.5h-9.37c-2.786 0-4.564 1.907-4.564 4.835v8.83c0 2.932 1.772 4.835 4.564 4.835h9.37c2.792 0 4.564-1.903 4.564-4.835v-8.83c0-2.932-1.772-4.835-4.564-4.835zM6.37 8.452a.75.75 0 0 1 .743.648l.007.102v6.86a.75.75 0 0 1-1.493.102l-.007-.102v-6.86a.75.75 0 0 1 .75-.75zm4.667-3.283a.75.75 0 0 1 .743.648l.007.102v10.143a.75.75 0 0 1-1.493.102l-.007-.102V5.92a.75.75 0 0 1 .75-.75zm4.59 6.908a.75.75 0 0 1 .743.648l.007.102v3.235a.75.75 0 0 1-1.493.102l-.007-.102v-3.235a.75.75 0 0 1 .75-.75z"/>
</symbol><symbol id="icon-chat" viewBox="0 0 22 22">
    <path d="M11.062.25A10.766 10.766 0 0 1 21.07 7.242a10.74 10.74 0 0 1-2.975 11.829 10.78 10.78 0 0 1-12.128 1.441l-.05-.017-.01-.013-.734-.415a.73.73 0 0 0-.416-.045 19.02 19.02 0 0 1-2.334.674l-.145.017c-.87.02-1.3-.546-1.3-1.37l.02-.176c.198-.818.446-1.624.728-2.37a.56.56 0 0 0-.046-.436l-.198-.385A10.731 10.731 0 0 1 1.82 5.4 10.77 10.77 0 0 1 11.062.25zm-.01 1.5l-.302.004a9.27 9.27 0 0 0-7.649 4.437 9.24 9.24 0 0 0-.296 9.096l.194.38c.26.484.313 1.05.136 1.618a19.05 19.05 0 0 0-.688 2.236l.1-.395.425-.11.438-.127.443-.14.45-.155c.475-.13.98-.1 1.48.105l.083.04.198.106.57.326.02.005-.013-.002.31.155a9.28 9.28 0 0 0 9.918-1.183l.237-.2a9.24 9.24 0 0 0 2.56-10.177 9.266 9.266 0 0 0-8.613-6.017zM6.287 9.774c.677 0 1.227.55 1.227 1.226a1.228 1.228 0 0 1-2.454 0c0-.678.55-1.226 1.227-1.226zm4.77 0c.677 0 1.227.55 1.227 1.226a1.228 1.228 0 0 1-2.454 0c0-.678.55-1.226 1.227-1.226zm4.77 0c.677 0 1.227.55 1.227 1.226a1.228 1.228 0 0 1-2.454 0c0-.678.55-1.226 1.227-1.226zm-9.54.952a.274.274 0 1 0 .001.547.274.274 0 0 0-.001-.547zm4.77 0a.274.274 0 1 0 .001.547.274.274 0 0 0-.001-.547zm4.77 0a.274.274 0 1 0 .001.547.274.274 0 0 0-.001-.547z"/>
</symbol><symbol id="icon-close" viewBox="0 0 13 13">
    <path fill-rule="evenodd" d="M12.48 2.08a.75.75 0 1 0-1.06-1.06L6.822 5.616 2.227 1.02a.75.75 0 0 0-1.06 1.06l4.596 4.597-4.597 4.596a.75.75 0 1 0 1.061 1.06l4.596-4.596 4.596 4.597a.75.75 0 0 0 1.061-1.061L7.884 6.677 12.48 2.08z"/>
</symbol><symbol id="icon-comment" viewBox="0 0 12 12">
    <path d="M6 0C2.7 0 0 2.325 0 5.25s2.7 5.25 6 5.25c.3 0 .6 0 .825-.075L10.5 12V8.7c.9-.9 1.5-2.1 1.5-3.45C12 2.325 9.3 0 6 0z"/>
</symbol><symbol id="icon-document" viewBox="0 0 19 20">
    <path d="M12.91 0c3.182 0 5.257 2.142 5.257 5.357v9.196c0 3.197-2.057 5.335-5.22 5.354l-7.69.003c-3.182 0-5.256-2.14-5.256-5.357V5.357C.001 2.16 2.057.023 5.22.004zm0 1.5l-7.685.004C2.902 1.518 1.5 2.974 1.5 5.357v9.196c0 2.398 1.414 3.857 3.756 3.857l7.685-.003c2.323-.014 3.725-1.47 3.725-3.854V5.357c0-2.397-1.414-3.857-3.757-3.857zm-.193 11.974a.75.75 0 0 1 .102 1.493l-.102.007h-7.22a.75.75 0 0 1-.102-1.493l.102-.007h7.22zm0-4.187a.75.75 0 0 1 .102 1.493l-.102.007h-7.22a.75.75 0 0 1-.102-1.493l.102-.007h7.22zM8.25 5.1a.75.75 0 0 1 .102 1.493L8.25 6.6H5.496a.75.75 0 0 1-.102-1.493l.102-.007H8.25z"/>
</symbol><symbol id="icon-dots-border" viewBox="0 0 24 6">
    <path d="M12 0a3 3 0 1 1 0 6 3 3 0 0 1 0-6zM3 0a3 3 0 1 1 0 6 3 3 0 0 1 0-6zm18 0a3 3 0 1 1 0 6 3 3 0 0 1 0-6zm-9 2a1 1 0 1 0 0 2 1 1 0 0 0 0-2zM3 2a1 1 0 1 0 0 2 1 1 0 0 0 0-2zm18 0a1 1 0 1 0 0 2 1 1 0 0 0 0-2z"/>
</symbol><symbol id="icon-download" viewBox="0 0 18 19">
    <path d="M17 17a1 1 0 0 1 .117 1.993L17 19H1a1 1 0 0 1-.117-1.993L1 17h16zM9 0a1 1 0 0 1 .993.883L10 1v9.585l4.293-4.292a1 1 0 0 1 1.32-.083l.094.083a1 1 0 0 1 .083 1.32l-.083.094-6 6a1 1 0 0 1-1.32.083l-.094-.083-6-6a1 1 0 0 1 1.32-1.497l.094.083L8 10.585V1a1 1 0 0 1 1-1z"/>
</symbol><symbol id="icon-dropbox" viewBox="0 0 14 14">
    <path d="M6.225.083a1 1 0 0 1 .8 0l5.5 2.4a1 1 0 0 1 .6.917v7.2a1 1 0 0 1-.6.917l-5.5 2.4-.115.042-.025.007a1.016 1.016 0 0 1-.26.034 1.01 1.01 0 0 1-.132-.009 1.015 1.015 0 0 1-.268-.075l.115.042a.99.99 0 0 1-.098-.035l-.017-.007-5.5-2.4a1 1 0 0 1-.6-.917V3.4a1 1 0 0 1 .6-.917zm-4.1 5.344v4.518l3.5 1.528V6.7l-3.5-1.273zm9 0L7.625 6.7v4.774l3.5-1.528V5.427zM6.625 2.1L3.068 3.642l3.557 1.294 3.557-1.294L6.625 2.1z"/>
</symbol><symbol id="icon-editor-bold" viewBox="0 0 10 12">
    <path fill-rule="evenodd" clip-rule="evenodd" d="M7.67 5.487a2.612 2.612 0 0 0 1.064-2.405C8.586 1.729 7.357.75 5.997.75H.5v.75l1.085.543a.75.75 0 0 1 .415.67v6.573a.75.75 0 0 1-.415.671L.5 10.5v.75h5.867c1.578 0 2.985-1.16 3.121-2.733a3 3 0 0 0-1.817-3.03zM4.25 2.25H5a1.5 1.5 0 1 1 0 3h-.75v-3zm0 4.5v3h1.5a1.5 1.5 0 0 0 0-3h-1.5z"/>
</symbol><symbol id="icon-editor-italic" viewBox="0 0 6 12">
    <path d="M6 1.5V0H1.5v1.5h.953c.228 0 .404.202.371.428L1.692 9.856a.75.75 0 0 1-.743.644H0V12h4.5v-1.5h-.953a.375.375 0 0 1-.371-.428l1.132-7.928a.75.75 0 0 1 .743-.644H6z"/>
</symbol><symbol id="icon-editor-pic" viewBox="0 0 14 13">
    <path fill-rule="evenodd" clip-rule="evenodd" d="M1.75 3h10.5a.709.709 0 0 1 .75.75v7.5a.708.708 0 0 1-.75.75H1.75a.709.709 0 0 1-.75-.75v-7.5A.709.709 0 0 1 1.75 3zm.75 7.5h9v-6h-9v6z"/>
    <path d="M2.5 0h9v1.5h-9z"/>
    <path d="M4.75 9.75L8.5 6l2.25 3.75h-6z"/>
    <circle cx="4.75" cy="6.75" r=".75"/>
</symbol><symbol id="icon-editor-smile" viewBox="0 0 12 12">
    <path d="M6 9.75c1.275 0 2.25-.975 2.25-2.25h-4.5c0 1.275.975 2.25 2.25 2.25z"/>
    <path fill-rule="evenodd" clip-rule="evenodd" d="M12 3.75c0-.75-.6-1.425-1.35-1.5A5.937 5.937 0 0 0 6 0C4.2 0 2.475.825 1.35 2.25.6 2.325 0 3 0 3.75V6c0 3.3 2.7 6 6 6s6-2.7 6-6V3.75zm-1.5.75v.75H8.25v-1.5h2.25v.75zM8.25 2.25h.225C7.725 1.8 6.9 1.5 6 1.5c-.9 0-1.725.3-2.475.75h.225c.825 0 1.5.675 1.5 1.5h1.5c0-.825.675-1.5 1.5-1.5zM1.5 3.75h2.25v1.5H1.5v-1.5zm.075 3C1.95 8.85 3.75 10.5 6 10.5s4.05-1.65 4.425-3.75H8.25c-.825 0-1.5-.675-1.5-1.5h-1.5c0 .825-.675 1.5-1.5 1.5H1.575z"/>
</symbol><symbol id="icon-email" viewBox="0 0 21 19">
    <path d="M15.324.25a5.733 5.733 0 0 1 5.648 6.044l-.001 6.484a5.772 5.772 0 0 1-1.525 4.258 5.71 5.71 0 0 1-4.13 1.83H5.888c-3.276 0-5.638-2.642-5.638-6.044V6.294C.25 2.892 2.612.25 5.888.25zm-.008 1.5H5.888C3.48 1.75 1.75 3.685 1.75 6.294v6.528c0 2.61 1.73 4.544 4.138 4.544h9.42c1.153-.013 2.25-.5 3.04-1.35s1.196-1.99 1.126-3.194l.001-6.572c.068-1.16-.34-2.3-1.127-3.15s-1.885-1.337-3.03-1.35zm1.536 4.34a.75.75 0 0 1-.033.979l-.08.076-4.273 3.44a2.971 2.971 0 0 1-3.51.117l-.166-.12-4.302-3.434a.75.75 0 0 1 .844-1.235l.092.063 4.297 3.43c.494.388 1.17.417 1.687.094l.126-.088 4.265-3.434a.75.75 0 0 1 1.055.114z"/>
</symbol><symbol id="icon-eye" viewBox="0 0 22 16">
    <path d="M11 0c2.843 0 5.44 1.35 7.752 3.59.81.786 1.537 1.635 2.174 2.5l.29.402.13.188.23.347.1.158.188.3a1 1 0 0 1 .004.999l-.128.215-.172.27-.215.323-.258.37a20.17 20.17 0 0 1-2.138 2.532C16.6 14.565 13.934 16 11 16s-5.6-1.435-7.957-3.793A20.17 20.17 0 0 1 .905 9.675l-.258-.37-.215-.323-.172-.27-.128-.215a1 1 0 0 1 0-.992L.26 7.29l.172-.27.215-.323.258-.37a20.17 20.17 0 0 1 2.138-2.532C5.4 1.435 8.066 0 11 0zm0 2C8.684 2 6.475 3.2 4.457 5.207a18.19 18.19 0 0 0-1.925 2.28l-.27.39L2.18 8l.082.12.27.39a18.19 18.19 0 0 0 1.925 2.28C6.475 12.8 8.684 14 11 14s4.525-1.2 6.543-3.207a18.19 18.19 0 0 0 1.925-2.28l.27-.39.08-.122-.133-.198-.24-.34-.133-.183a18.107 18.107 0 0 0-1.954-2.25C15.387 3.116 13.242 2 11 2zm0 2a4 4 0 1 1 0 8 4 4 0 1 1 0-8zm0 2a2 2 0 1 0 0 4 2 2 0 1 0 0-4z"/>
</symbol><symbol id="icon-full-screen" viewBox="0 0 16 16">
    <path d="M16 10v5a.94.94 0 0 1-1 1h-5v-2h4v-4h2zM2 10v4h4v2H1a.94.94 0 0 1-1-1v-5h2zM6 0v2H2v4H0V1a.94.94 0 0 1 1-1h5zm9 0a.94.94 0 0 1 1 1v5h-2V2h-4V0h5z"/>
</symbol><symbol id="icon-game-play" viewBox="0 0 22 22">
    <path d="M7.072.25a.75.75 0 0 1 .743.648L7.822 1a.6.6 0 0 0 .517.583l.1.008H9.5c1.516.005 2.76 1.17 2.856 2.65l.006.172-.001.214 3.31.037c3.51.114 6.08 2.706 6.08 6.197v4.65c0 3.57-2.7 6.2-6.31 6.2l-2.224.028a262.7 262.7 0 0 1-6.644-.028l-.24-.004C2.823 21.595.25 19.003.25 15.51v-4.65c0-3.57 2.69-6.2 6.3-6.2l1.748-.024 2.552-.013.002-.207c-.003-.685-.542-1.252-1.234-1.32l-.13-.007H8.44c-1.166 0-2.118-.933-2.118-2.09a.75.75 0 0 1 .75-.75zm6.55 5.887c-2.384-.024-4.73-.016-7.05.024l-.226.004C3.655 6.267 1.75 8.2 1.75 10.862v4.65c0 2.735 2.012 4.7 4.835 4.7l2.205.028 6.638-.028.226-.004c2.692-.103 4.596-2.036 4.596-4.697v-4.65c0-2.735-2.01-4.7-4.822-4.7zm-5.773 4.427a.75.75 0 0 1 .743.648l.007.102v1.122l1.16.001a.75.75 0 0 1 .102 1.493l-.102.007-1.16-.001v1.123a.75.75 0 0 1-1.493.102l-.007-.102v-1.123l-1.16.001a.75.75 0 0 1-.102-1.493l.102-.007 1.16-.001v-1.122a.75.75 0 0 1 .75-.75zm8.33 3.69a.75.75 0 0 1 .102 1.493l-.102.007h-.107a.75.75 0 0 1-.102-1.493l.102-.007h.107zm-1.814-3.575a.75.75 0 0 1 .102 1.493l-.102.007h-.107a.75.75 0 0 1-.102-1.493l.102-.007h.107z"/>
</symbol><symbol id="icon-heart" viewBox="0 0 17 15">
    <path d="M1.464 1.464a5 5 0 0 0 0 7.071l6.338 6.18a1 1 0 0 0 1.396 0l6.328-6.172a5 5 0 0 0 .009-7.079l-.18-.172a5 5 0 0 0-6.709 0L8.5 1.43l.034.032a5 5 0 0 0-7.07.001zM7.12 2.88c.182.18.34.404.5.7a1 1 0 0 0 1.757 0c.16-.295.318-.518.5-.7a3 3 0 0 1 4.243 0l.135.144a3 3 0 0 1-.135 4.098L8.5 12.603l-5.63-5.5a3 3 0 0 1 4.252-4.234z"/>
</symbol><symbol id="icon-joystick" viewBox="0 0 24 16">
    <path d="M21 .25A2.75 2.75 0 0 1 23.75 3v10A2.75 2.75 0 0 1 21 15.75H3A2.75 2.75 0 0 1 .25 13V3A2.75 2.75 0 0 1 3 .25zm0 1.5H3A1.25 1.25 0 0 0 1.75 3v10A1.25 1.25 0 0 0 3 14.25h18A1.25 1.25 0 0 0 22.25 13V3A1.25 1.25 0 0 0 21 1.75zM7 5.25a.75.75 0 0 1 .743.648L7.75 6v1.25H9a.75.75 0 0 1 .102 1.493L9 8.75H7.75V10a.75.75 0 0 1-1.493.102L6.25 10V8.75H5a.75.75 0 0 1-.102-1.493L5 7.25h1.25V6A.75.75 0 0 1 7 5.25zm10 0a2.75 2.75 0 1 1 0 5.5 2.75 2.75 0 1 1 0-5.5zm0 1.5a1.25 1.25 0 1 0 0 2.5 1.25 1.25 0 1 0 0-2.5z"/>
</symbol><symbol id="icon-like" viewBox="0 0 18 18">
    <path d="M4.5 7.5a1 1 0 0 1 1 1v8a1 1 0 0 1-1 1h-3a1 1 0 0 1-1-1v-8a1 1 0 0 1 1-1zm4-7a3 3 0 0 1 2.995 2.824l.005.176v3h3.005a3 3 0 0 1 2.217.973l.127.148a3 3 0 0 1 .628 2.324l-.038.206-1.11 5a3 3 0 0 1-2.747 2.343l-.182.006H6.5a1 1 0 0 1-.117-1.993L6.5 15.5h6.9a1 1 0 0 0 .944-.671l.032-.112 1.11-5a1 1 0 0 0-.85-1.209l-.129-.008H10.5a1 1 0 0 1-.993-.883L9.5 7.5v-4a.997.997 0 0 0-.293-.707l-.065-.059-1.693 5.082a1 1 0 0 1-1.152.663l-.113-.03a1 1 0 0 1-.663-1.152l.03-.113 2-6A1 1 0 0 1 8.5.5zm-5 9h-1v6h1v-6z"/>
</symbol><symbol id="icon-link" viewBox="0 0 24 12">
    <path d="M21 0a3 3 0 0 1 2.995 2.824L24 3v6a3 3 0 0 1-2.824 2.995L21 12h-6a1 1 0 0 1-.117-1.993L15 10h6a1 1 0 0 0 .993-.883L22 9V7H8a1 1 0 0 1-.117-1.993L8 5h14V3a1 1 0 0 0-.883-.993L21 2h-6a1 1 0 0 1-.117-1.993L15 0h6zM9 0a1 1 0 0 1 1 1 1 1 0 0 1-.883.993L9 2H3a1 1 0 0 0-.993.883L2 3v6a1 1 0 0 0 .883.993L3 10h6a1 1 0 0 1 .117 1.993L9 12H3A3 3 0 0 1 .005 9.176L0 9V3A3 3 0 0 1 2.824.005L3 0h6z"/>
</symbol><symbol id="icon-live" viewBox="0 0 16 11">
    <path d="M7.716 7a2 2 0 1 1 0 4 2 2 0 0 1 0-4zm4.593-1.658a1 1 0 0 1-1.413 1.415 4.5 4.5 0 0 0-6.362 0 1 1 0 0 1-1.413-1.415 6.5 6.5 0 0 1 9.188 0zm2.83-2.145a1 1 0 0 1-1.414 1.415 8.5 8.5 0 0 0-12.02 0A1 1 0 1 1 .293 3.197c4.1-4.099 10.746-4.099 14.847 0z"/>
</symbol><symbol id="icon-location" viewBox="0 0 21 21">
    <path d="M10.61.25c5.722 0 10.36 4.64 10.36 10.36s-4.64 10.36-10.36 10.36S.25 16.333.25 10.61 4.89.25 10.61.25zm0 1.5a8.86 8.86 0 1 0 0 17.72 8.86 8.86 0 0 0 0-17.72zm3.117 4.804a.75.75 0 0 1 .94.94l-1.593 5.09a.75.75 0 0 1-.492.492l-5.09 1.593a.75.75 0 0 1-.94-.94l1.593-5.09a.75.75 0 0 1 .492-.492zm-.92 1.86L9.46 9.46l-1.048 3.347 3.347-1.048 1.048-3.347z"/>
</symbol><symbol id="icon-logout" viewBox="0 0 24 18">
    <path d="M14.5.25c4.814 0 8.75 3.936 8.75 8.75s-3.936 8.75-8.75 8.75c-3.113 0-5.985-1.693-7.548-4.372a.75.75 0 1 1 1.296-.756c1.297 2.224 3.68 3.628 6.252 3.628 3.986 0 7.25-3.264 7.25-7.25s-3.264-7.25-7.25-7.25c-2.636 0-4.935 1.37-6.252 3.628a.75.75 0 1 1-1.296-.756C8.534 1.91 11.32.25 14.5.25zM5.03 5.47a.75.75 0 0 1 .073.977l-.073.084L3.3 8.25h12.2a.75.75 0 0 1 .102 1.493l-.102.007H3.3l1.72 1.72a.75.75 0 0 1 .073.977l-.073.084a.75.75 0 0 1-.977.073l-.084-.073-3-3-.063-.072.063.072C.933 9.493.9 9.453.873 9.41a.77.77 0 0 1-.037-.063.67.67 0 0 1-.013-.027.75.75 0 0 1-.034-.085l-.006-.02A.65.65 0 0 1 .75 9c0-.038.003-.076.008-.113a.83.83 0 0 1 .006-.035c.005-.025.01-.05.018-.073a.8.8 0 0 1 .012-.037.74.74 0 0 1 .028-.066L.84 8.64a.731.731 0 0 1 .043-.07l.013-.018a.699.699 0 0 1 .073-.084l3-3a.75.75 0 0 1 1.061 0z"/>
</symbol><symbol id="icon-menu-fill" viewBox="0 0 13 4">
    <circle cx="6.882" cy="2" r="1.5"/>
    <circle cx="2.382" cy="2" r="1.5"/>
    <circle cx="11.382" cy="2" r="1.5"/>
</symbol><symbol id="icon-menu-vertical" viewBox="0 0 4 16">
    <circle cx="2" cy="8" r="2" transform="rotate(90 2 8)"/>
    <circle cx="2" cy="2" r="2" transform="rotate(90 2 2)"/>
    <circle cx="2" cy="14" r="2" transform="rotate(90 2 14)"/>
</symbol><symbol id="icon-menu" viewBox="0 0 16 4">
    <path d="M8 0a2 2 0 1 1 0 4 2 2 0 1 1 0-4zm6 0a2 2 0 1 1 0 4 2 2 0 1 1 0-4zM2 0a2 2 0 1 1 0 4 2 2 0 1 1 0-4zm6 1a1 1 0 1 0 0 2 1 1 0 1 0 0-2zm6 0a1 1 0 1 0 0 2 1 1 0 1 0 0-2zM2 1a1 1 0 1 0 0 2 1 1 0 1 0 0-2z"/>
</symbol><symbol id="icon-moon" viewBox="0 0 24 24">
    <path d="M10.404.012c.858-.172 1.507.763 1.046 1.507-2.376 3.838-1.8 8.93 1.444 12.254 2.484 2.395 5.925 3.403 9.34 2.833a1 1 0 0 1 1.033 1.483c-.416.727-1.023 1.473-1.76 2.21a12.05 12.05 0 0 1-17.014 0c-4.69-4.69-4.69-12.324-.022-16.99l.272-.28A11.077 11.077 0 0 1 10.404.012zM8.69 2.67l-.22.106A9.19 9.19 0 0 0 5.908 4.7l-.21.216a10.05 10.05 0 0 0 .209 13.97 10.05 10.05 0 0 0 14.186 0l.123-.127-.212-.002a12.762 12.762 0 0 1-8.248-3.3l-.273-.256C8.2 11.816 7.187 6.95 8.665 2.737l.024-.068zm13.69.237c.94-.778 2.242.58 1.327 1.494l-.116.128c-.892 1.084-.853 3.488.116 4.457l.08.087c.778.94-.58 2.242-1.493 1.327l-.128-.116c-1.084-.892-3.488-.853-4.457.116l-.087.08c-.94.778-2.242-.58-1.327-1.494l.116-.128c.892-1.084.853-3.488-.116-4.457l-.08-.087c-.778-.94.58-2.242 1.494-1.327l.128.116c1.084.892 3.488.853 4.457-.116zM21.032 5.66l-.142.023a6.58 6.58 0 0 1-1.78 0l-.143-.023.023.144a6.58 6.58 0 0 1 0 1.78l-.023.143.143-.022a6.58 6.58 0 0 1 1.78 0l.142.022L21 7.582a6.58 6.58 0 0 1 0-1.78l.022-.144z"/>
</symbol><symbol id="icon-pause" viewBox="0 0 14 14">
    <path d="M4 0a.94.94 0 0 1 1 1v12a.94.94 0 0 1-1 1H1a.94.94 0 0 1-1-1V1a.94.94 0 0 1 1-1zm9 0a.94.94 0 0 1 1 1v12a.94.94 0 0 1-1 1h-3a.94.94 0 0 1-1-1V1a.94.94 0 0 1 1-1z"/>
</symbol><symbol id="icon-play-square" viewBox="0 0 18 18">
    <path d="M15.5 3.5a2 2 0 0 1 2 2v10a2 2 0 0 1-2 2h-13a2 2 0 0 1-2-2v-10a2 2 0 0 1 2-2zm0 2h-13v10h13v-10zm-9 2a1 1 0 0 1 1.514-.857l5 3a1 1 0 0 1 0 1.715l-5 3A1 1 0 0 1 6.5 13.5zm2 1.766v2.467l2.056-1.233L8.5 9.266zM13.5 0a1 1 0 0 1 1 1 1 1 0 0 1-.883.993L13.5 2h-9A1 1 0 0 1 4.383.007L4.5 0h9z"/>
</symbol><symbol id="icon-play-window" viewBox="0 0 16 13">
    <path d="M14 11v2H2v-2h12zm2-11v10H0V0h16zM7 3v4l3-2-3-2z"/>
</symbol><symbol id="icon-play" viewBox="0 0 12 16">
    <path d="M12 8a1 1 0 0 0-.427-.819l-10-7A1.001 1.001 0 0 0 .538.112 1 1 0 0 0 0 .999v14a1 1 0 0 0 .538.887c.33.17.73.146 1.035-.068l10-7A.995.995 0 0 0 12 8z"/>
</symbol><symbol id="icon-plus-sm" viewBox="0 0 12 13">
    <path d="M6 .857a1 1 0 0 1 .993.883L7 1.857v4h4a1 1 0 0 1 .117 1.993L11 7.857H7v4a1 1 0 0 1-1.993.117L5 11.857v-4H1a1 1 0 0 1-.117-1.993L1 5.857h4v-4a1 1 0 0 1 1-1z"/>
</symbol><symbol id="icon-plus" viewBox="0 0 22 22">
    <path d="M11 0a1 1 0 0 1 .993.883L12 1v9h9a1 1 0 0 1 .117 1.993L21 12h-9v9a1 1 0 0 1-1.993.117L10 21v-9H1a1 1 0 0 1-.117-1.993L1 10h9V1a1 1 0 0 1 1-1z"/>
</symbol><symbol id="icon-profile-check" viewBox="0 0 20 20">
    <path d="M7.5 10c-2.3 0-4.167-2.7-4.167-5v-.833a4.167 4.167 0 0 1 8.334 0V5c0 2.3-1.866 5-4.167 5z"/>
    <path d="M10 16.667c0-1.755.778-3.325 2.005-4.395-1.252-.328-2.807-.605-4.505-.605-2.353 0-4.44.531-5.812.994A2.492 2.492 0 0 0 0 15.027v3.306h10.245A5.826 5.826 0 0 1 10 16.667z"/>
    <path d="M14.167 19.512l-2.845-2.845 1.178-1.179 1.667 1.667 4.166-4.167 1.179 1.179-5.345 5.345z"/>
</symbol><symbol id="icon-profile" viewBox="0 0 17 21">
    <path d="M6.317 13.534a25.8 25.8 0 0 1 4.516 0l.48.04c.656.064 1.308.165 1.95.302 1.634.335 2.82.93 3.346 2.033a3.02 3.02 0 0 1 0 2.594c-.527 1.106-1.728 1.705-3.333 2.02l-.486.1c-.65.124-1.305.21-1.956.253-1.222.104-2.45.122-3.633.058l-.235-.001-.2-.007-.206-.015c-.094-.01-.17-.02-.213-.034a16.142 16.142 0 0 1-2.427-.35l-.266-.055c-1.486-.33-2.587-.922-3.096-1.97a3.013 3.013 0 0 1 .008-2.606c.53-1.06 1.776-1.7 3.334-2.018a17.47 17.47 0 0 1 2.434-.343zM10.7 15.03a24.42 24.42 0 0 0-4.267.001 16.06 16.06 0 0 0-2.244.316c-1.152.236-2.032.687-2.294 1.21a1.47 1.47 0 0 0-.145.646c0 .227.05.452.144.65.27.555 1.1.97 2.318 1.207l.367.077c.614.12 1.247.205 1.95.258.09.018.185.03.298.034l.4.007a25.13 25.13 0 0 0 3.478-.054 15.06 15.06 0 0 0 2.25-.326l.234-.05c1.07-.24 1.81-.636 2.052-1.148a1.52 1.52 0 0 0 0-1.305c-.26-.547-1.084-.96-2.298-1.21a16.23 16.23 0 0 0-2.24-.315zM8.58.25a5.53 5.53 0 0 1 5.528 5.528 5.53 5.53 0 0 1-5.528 5.528 5.53 5.53 0 0 1-5.528-5.528A5.53 5.53 0 0 1 8.579.25zm0 1.5a4.03 4.03 0 0 0-4.028 4.028A4.03 4.03 0 0 0 8.58 9.806a4.03 4.03 0 0 0 4.028-4.028A4.03 4.03 0 0 0 8.579 1.75z"/>
</symbol><symbol id="icon-remove" viewBox="0 0 10 10">
    <path d="M1.613.21l.094.083L5 3.585 8.293.293a1 1 0 0 1 1.497 1.32l-.083.094L6.415 5l3.292 3.293a1 1 0 0 1-1.32 1.497l-.094-.083L5 6.415 1.707 9.707A1 1 0 0 1 .21 8.387l.083-.094L3.585 5 .293 1.707A1 1 0 0 1 1.613.21z"/>
</symbol><symbol id="icon-replay" viewBox="0 0 18 18">
    <path d="M16.5 3.5a1 1 0 0 1 .993.883l.007.117v9a1 1 0 0 1-.883.993l-.117.007H8.915l1.292 1.293a1 1 0 0 1 .083 1.32l-.083.094a1 1 0 0 1-1.32.083l-.094-.083-3-3-.073-.082a1.005 1.005 0 0 1-.007-.008l.08.09a1.008 1.008 0 0 1-.293-.688v-.037c0-.024.002-.048.004-.071L5.5 13.5a1.008 1.008 0 0 1 .21-.613c.028-.035.054-.066.083-.094l3-3a1 1 0 0 1 1.497 1.32l-.083.094L8.915 12.5H15.5v-7h-1a1 1 0 0 1-.993-.883L13.5 4.5a1 1 0 0 1 .883-.993L14.5 3.5h2zM9.113.71l.094.083 3 3c.029.028.055.059.08.09l-.08-.09a1.008 1.008 0 0 1 .292.675l.001.032v.033l-.004.052.004-.085a1.008 1.008 0 0 1-.22.625l-.073.082-3 3a1 1 0 0 1-1.497-1.32l.083-.094L9.085 5.5H2.5v7h1a1 1 0 0 1 .993.883l.007.117a1 1 0 0 1-.883.993L3.5 14.5h-2a1 1 0 0 1-.993-.883L.5 13.5v-9a1 1 0 0 1 .883-.993L1.5 3.5h7.585L7.793 2.207A1 1 0 0 1 7.71.887l.083-.094A1 1 0 0 1 9.113.71z"/>
</symbol><symbol id="icon-reply" viewBox="0 0 17 14">
    <path d="M8 4.065l-.118.01C3.074 4.435 0 7.215 0 13c0 1.007 1.32 1.383 1.85.525l.158-.246c1.334-2.007 3.217-2.99 5.734-3.224l.257-.02V13a1 1 0 0 0 1.651.759l7-6a1 1 0 0 0 0-1.519l-7-6A1 1 0 0 0 8 1v3.065zm2-.89L14.463 7 10 10.825V9a1 1 0 0 0-1-1l-.352.004C6.336 8.05 4.354 8.577 2.73 9.7l-.297.214.055-.16C3.43 7.132 5.694 6.033 9 6.033a1 1 0 0 0 1-1v-1.86z"/>
</symbol><symbol id="icon-search" viewBox="0 0 20 20">
    <path d="M9.612 0c5.308 0 9.612 4.208 9.612 9.4 0 2.45-.958 4.68-2.53 6.354l3.088 3.01c.29.282.3.74.001 1.024a.753.753 0 0 1-.964.07l-.083-.07-3.124-3.047a9.706 9.706 0 0 1-6 2.057C4.303 18.8 0 14.6 0 9.4S4.303 0 9.612 0zm0 1.448c-4.49 0-8.13 3.56-8.13 7.952s3.64 7.952 8.13 7.952 8.13-3.56 8.13-7.952-3.64-7.952-8.13-7.952z"/>
</symbol><symbol id="icon-settings-fill" viewBox="0 0 16 16">
    <path d="M15.135 6.784a2 2 0 0 1-1.23-2.969c.322-.536.225-.998-.094-1.316l-.3-.3c-.318-.318-.78-.415-1.316-.094A2 2 0 0 1 9.216.865C9.065.258 8.67 0 8.22 0h-.44c-.45 0-.845.258-.997.865a2 2 0 0 1-2.969 1.23c-.536-.322-1-.225-1.317.093l-.3.3c-.318.318-.415.78-.093 1.317a2 2 0 0 1-1.23 2.969C.26 6.935 0 7.33 0 7.78v.438c0 .45.258.845.865.997a2 2 0 0 1 1.23 2.969c-.322.536-.225.998.094 1.316l.3.3c.32.32.782.415 1.316.094a2 2 0 0 1 2.969 1.23c.15.607.547.865.997.865h.438c.45 0 .845-.258.997-.865a2 2 0 0 1 2.969-1.23c.535.32.997.225 1.316-.094l.3-.3c.318-.318.415-.78.094-1.316a2 2 0 0 1 1.23-2.969c.607-.15.865-.547.865-.997V7.78c0-.45-.26-.846-.865-.997zM8 11a3 3 0 1 1 0-6 3 3 0 1 1 0 6z"/>
</symbol><symbol id="icon-settings" viewBox="0 0 20 22">
    <path d="M10.797.528c.72 0 1.41.29 1.91.807s.773 1.213.75 1.864l.01.153c.018.15.067.296.146.43.155.264.41.456.705.533s.612.033.9-.142l.166-.086a2.666 2.666 0 0 1 3.44 1.08l.622 1.08a.75.75 0 0 1 .043.088l.058.116a2.66 2.66 0 0 1-.897 3.32l-.26.164c-.137.095-.25.22-.336.37-.155.265-.197.58-.118.878s.273.55.568.72l.17.11c.512.358.882.886 1.043 1.49a2.66 2.66 0 0 1-.276 2.028l-.67 1.115-.1.157c-.787 1.13-2.314 1.477-3.48.804l-.138-.07c-.144-.064-.3-.1-.44-.104a1.144 1.144 0 0 0-.82.338 1.18 1.18 0 0 0-.339.857l-.008.178a2.663 2.663 0 0 1-2.654 2.444H9.538c-1.47 0-2.663-1.192-2.662-2.616l-.01-.153a1.117 1.117 0 0 0-.15-.437c-.152-.265-.403-.458-.698-.537s-.61-.037-.913.14l-.18.1a2.666 2.666 0 0 1-3.414-1.125L.87 15.494l-.086-.166c-.59-1.244-.127-2.74 1.045-3.416l.107-.067c.313-.217.5-.574.5-.956 0-.416-.222-.8-.61-1.024l-.157-.1a2.668 2.668 0 0 1-.775-3.531l.66-1.083a2.654 2.654 0 0 1 3.606-.995l.135.072c.138.063.288.097.432.098.636 0 1.154-.51 1.164-1.165v-.2A2.655 2.655 0 0 1 9.535.529zm0 1.5H9.543c-.307 0-.6.122-.818.34a1.14 1.14 0 0 0-.33.685l-.014.316A2.664 2.664 0 0 1 5.72 5.827a2.61 2.61 0 0 1-1.085-.253l-.195-.103a1.166 1.166 0 0 0-1.595.444l-.66 1.083c-.302.524-.15 1.192.317 1.518l.265.168a2.66 2.66 0 0 1 1.17 2.206c0 .875-.43 1.693-1.173 2.206l-.158.1c-.52.3-.722.952-.48 1.464l.057.1.64 1.102c.15.27.402.47.7.555a1.15 1.15 0 0 0 .765-.044l.1-.054c.61-.356 1.335-.453 2.017-.27s1.262.63 1.606 1.23c.185.312.302.66.348 1.06l.02.366a1.163 1.163 0 0 0 1.156 1.036h1.254c.606 0 1.1-.466 1.157-1.037l.006-.113c-.003-.708.276-1.388.777-1.89s1.18-.78 1.906-.777c.356.01.705.09 1.063.25l.32.164c.503.22 1.1.06 1.403-.374l.074-.115.654-1.1c.155-.265.197-.582.118-.878a1.14 1.14 0 0 0-.426-.63l-.114-.073a2.645 2.645 0 0 1-1.24-1.617 2.65 2.65 0 0 1 .268-2.015c.193-.337.46-.627.805-.867l.163-.103c.52-.304.72-.954.48-1.468l-.072-.138-.013-.03-.594-1.03a1.164 1.164 0 0 0-1.36-.532l-.113.045-.105.053a2.649 2.649 0 0 1-2.014.282 2.65 2.65 0 0 1-1.62-1.223 2.63 2.63 0 0 1-.348-1.058l-.013-.26c.01-.314-.11-.62-.33-.844s-.52-.352-.835-.352zm-.622 5.475a3.386 3.386 0 1 1-.002 6.77 3.386 3.386 0 0 1 .003-6.769zm0 1.5a1.885 1.885 0 1 0-.001 3.771 1.885 1.885 0 0 0 .001-3.771z"/>
</symbol><symbol id="icon-share-1" viewBox="0 0 17 14">
    <path d="M8 4.065l-.118.009C3.074 4.435 0 7.214 0 13c0 1.007 1.321 1.383 1.85.525l.158-.245c1.335-2.008 3.217-2.991 5.735-3.225l.257-.02V13a1 1 0 0 0 1.65.76l7-6a1 1 0 0 0 0-1.52l-7-6A1 1 0 0 0 8 1v3.065zm2-.891L14.463 7 10 10.825V9a1 1 0 0 0-1-1l-.352.004C6.336 8.05 4.354 8.577 2.73 9.7l-.297.214.055-.16C3.428 7.132 5.694 6.033 9 6.033a1 1 0 0 0 1-1V3.174z"/>
</symbol><symbol id="icon-share" viewBox="0 0 22 22">
    <path d="M6 6a1 1 0 0 1 .117 1.993L6 8H2v12h14v-6a1 1 0 0 1 .883-.993L17 13a1 1 0 0 1 .993.883L18 14v7a1 1 0 0 1-.883.993L17 22H1a1 1 0 0 1-.993-.883L0 21V7a1 1 0 0 1 .883-.993L1 6h5zM17.613.2l.094.083 4 4c.028.028.055.06.08.1l-.08-.1a1.01 1.01 0 0 1 .097.112l.05.075.02.037.03.06.022.052.022.06.014.046.016.065.01.052.007.06.003.055v.073l-.003.054L22 5a1.01 1.01 0 0 1-.011.149l-.01.052-.015.065-.014.046-.02.06-.023.052-.03.06-.02.036-.05.074-.013.018-.067.078-.016.016-4 4a1 1 0 0 1-1.497-1.32l.083-.094L18.585 6H18a9 9 0 0 0-9 9 1 1 0 1 1-2 0C7 9.02 11.77 4.157 17.712 4.004L18 4h.585l-2.292-2.293a1 1 0 0 1-.083-1.32l.083-.094a1 1 0 0 1 1.32-.083z"/>
</symbol><symbol id="icon-smile" viewBox="0 0 16 16">
    <path d="M8 0a8 8 0 1 1 0 16A8 8 0 1 1 8 0zm0 1a7 7 0 1 0 0 14A7 7 0 1 0 8 1zm4.41 7.5l.09.012a.5.5 0 0 1 .377.598 5 5 0 0 1-9.751 0 .5.5 0 1 1 .975-.222 4 4 0 0 0 7.801 0 .5.5 0 0 1 .421-.385l.088-.004zM5 4a2 2 0 0 1 2 2 .5.5 0 1 1-1 0 1 1 0 1 0-2 0 .5.5 0 1 1-1 0 2 2 0 0 1 2-2zm7 .268A2 2 0 0 1 13 6a.5.5 0 1 1-1 0 1 1 0 0 0-1.5-.866A1 1 0 0 0 10 6a.5.5 0 1 1-1 0 2 2 0 0 1 3-1.732z"/>
</symbol><symbol id="icon-sound-off" viewBox="0 0 14 16">
    <path d="M12.4.2L6.7 4H1a.94.94 0 0 0-1 1v6a.94.94 0 0 0 1 1h5.7l5.7 3.8c.7.4 1.6 0 1.6-.8V1a1 1 0 0 0-1.6-.8z"/>
</symbol><symbol id="icon-sound-on" viewBox="0 0 16 16">
    <path d="M12.8 12.2c-.4-.4-.4-1 0-1.4a3.98 3.98 0 0 0 0-5.7c-.4-.4-.4-1 0-1.4s1-.4 1.4 0c2.3 2.3 2.3 6.1 0 8.5-.3.4-1 .4-1.4 0zM11 1A1 1 0 0 0 9.4.2L3.7 4H1a.94.94 0 0 0-1 1v6a.94.94 0 0 0 1 1h2.7l5.7 3.8c.7.4 1.6 0 1.6-.8V1z"/>
</symbol><symbol id="icon-star-fill" viewBox="0 0 20 20">
    <path d="M15.92 12.32c-.26.25-.38.62-.32.97l.89 4.92c.07.42-.1.84-.45 1.08a1.1 1.1 0 0 1-1.17.08l-4.43-2.31a1.136 1.136 0 0 0-.5-.13h-.27a.811.811 0 0 0-.27.09l-4.43 2.32c-.22.11-.47.15-.71.11a1.11 1.11 0 0 1-.89-1.27l.89-4.92a1.12 1.12 0 0 0-.32-.98L.33 8.78c-.3-.3-.41-.73-.27-1.13.13-.39.47-.68.89-.75l4.97-.72c.38-.04.71-.27.88-.61l2.19-4.49c.05-.1.12-.19.2-.27l.09-.07c.04-.05.1-.09.16-.13l.11-.04.17-.07h.42c.38.04.71.27.88.6l2.22 4.47c.16.33.47.55.83.61l4.97.72c.42.06.77.35.91.75.13.4.02.84-.29 1.13l-3.74 3.54z"/>
</symbol><symbol id="icon-star" viewBox="0 0 22 22">
    <path d="M10.49.832a1.583 1.583 0 0 0-.92.807L7.136 6.546a.106.106 0 0 1-.078.055l-5.444.79c-.343.06-.638.207-.875.424-.642.643-.642 1.64-.025 2.26l3.992 3.85a.082.082 0 0 1 .02.068l-.952 5.4c-.058.35-.001.7.16 1.007a1.604 1.604 0 0 0 2.136.668l4.906-2.575c.03-.016.054-.016.074-.005l4.878 2.557c.32.16.667.214 1.006.162a1.581 1.581 0 0 0 1.312-1.797l-.955-5.428c-.005-.028.001-.046.015-.06l3.96-3.847c.246-.232.414-.55.466-.895a1.572 1.572 0 0 0-.303-1.184 1.59 1.59 0 0 0-1.052-.613l-5.452-.8a.08.08 0 0 1-.06-.046l-2.442-4.92a1.614 1.614 0 0 0-.588-.642l-.127-.07A1.59 1.59 0 0 0 10.49.818zm.476 1.422L11 2.25l.034.01c.022.01.04.028.05.048l2.434 4.905c.224.463.67.79 1.188.87l5.463.792c.03.004.052.017.066.035s.017.035.014.054a.079.079 0 0 1-.02.035l-3.962 3.85a1.55 1.55 0 0 0-.452 1.413l.95 5.402c.004.024-.026.064-.074.072a.147.147 0 0 1-.08-.016l-4.855-2.545a1.564 1.564 0 0 0-1.488.006l-4.886 2.565c-.04.02-.102.002-.126-.043a.093.093 0 0 1-.004-.047l.95-5.405a1.587 1.587 0 0 0-.45-1.4L1.765 9.004c-.023-.023-.023-.074.01-.107l.042-.017c.01-.004.024-.007.037-.01l5.433-.787a1.613 1.613 0 0 0 1.192-.87l2.44-4.915a.084.084 0 0 1 .048-.045z"/>
</symbol><symbol id="icon-sun" viewBox="0 0 24 24">
    <path d="M12 21a1 1 0 0 1 .993.883L13 22v1a1 1 0 0 1-1.993.117L11 23v-1a1 1 0 0 1 1-1zm7.713-2.7l.094.083.7.7a1 1 0 0 1-1.32 1.497l-.094-.083-.7-.7a1 1 0 0 1 1.32-1.497zm-14.106.083a1 1 0 0 1 .083 1.32l-.083.094-.7.7a1 1 0 0 1-1.497-1.32l.083-.094.7-.7a1 1 0 0 1 1.414 0zM12 6a6 6 0 1 1 0 12 6 6 0 1 1 0-12zm0 2a4 4 0 1 0 0 8 4 4 0 1 0 0-8zM2 11a1 1 0 0 1 .117 1.993L2 13H1a1 1 0 0 1-.117-1.993L1 11h1zm21 0a1 1 0 0 1 .117 1.993L23 13h-1a1 1 0 0 1-.117-1.993L22 11h1zM4.813 3.4l.094.083.7.7a1 1 0 0 1-1.32 1.497l-.094-.083-.7-.7A1 1 0 0 1 4.813 3.4zm15.694.083a1 1 0 0 1 .083 1.32l-.083.094-.7.7a1 1 0 0 1-1.497-1.32l.083-.094.7-.7a1 1 0 0 1 1.414 0zM12 0a1 1 0 0 1 .993.883L13 1v1a1 1 0 0 1-1.993.117L11 2V1a1 1 0 0 1 1-1z"/>
</symbol><symbol id="icon-trending" viewBox="0 0 21 22">
    <path d="M12.924 1.37a.75.75 0 0 1 .102 1.493l-.102.007H5.657c-2.455 0-4.034 1.626-4.125 4.16l-.004.233v8.082c0 2.602 1.483 4.284 3.906 4.38l.223.004h8.604c2.457 0 4.034-1.62 4.125-4.152l.004-.233v-7.04a.75.75 0 0 1 1.493-.102l.007.102v7.04c0 3.4-2.14 5.772-5.394 5.88l-.234.004H5.657c-3.33 0-5.525-2.3-5.625-5.644l-.004-.24v-8.08c0-3.392 2.142-5.78 5.394-5.9l.234-.004h7.268zM15.04 8.2a.75.75 0 0 1 .195.96l-.06.093-2.93 3.78a.75.75 0 0 1-.964.193l-.093-.062-2.82-2.214-2.53 3.3a.75.75 0 0 1-.959.198l-.093-.06a.75.75 0 0 1-.198-.959l.06-.093 2.993-3.9a.75.75 0 0 1 .965-.195l.093.062 2.82 2.215 2.467-3.183a.75.75 0 0 1 1.052-.134zM17.995.528a2.672 2.672 0 1 1 0 5.343 2.672 2.672 0 0 1 0-5.343zm0 1.5a1.172 1.172 0 0 0 0 2.344 1.17 1.17 0 1 0 0-2.344z"/>
</symbol><symbol id="icon-upload" viewBox="0 0 17 17">
    <path d="M5.876 6.047v2H3.76l-.75 6h11.734l-.75-6h-2.117v-2h3a1 1 0 0 1 .992.876l1 8a1 1 0 0 1-.243.786.999.999 0 0 1-.75.338h-14a1 1 0 0 1-.993-1.124l1-8a1 1 0 0 1 .993-.876h3zm3-6l4 4h-3v7h-2v-7h-3l4-4z"/>
</symbol><symbol id="icon-view-cell" viewBox="0 0 17 17">
    <path d="M2.5 16.5a2 2 0 0 1-2-2v-12a2 2 0 0 1 2-2h12a2 2 0 0 1 2 2v12a2 2 0 0 1-2 2zm0-2h5v-5h-5v5zm12-5h-5v5h5v-5zm0-2v-5h-5v5h5zm-7-5h-5v5h5v-5z"/>
</symbol><symbol id="icon-view-list" viewBox="0 0 18 18">
    <path d="M15.5.5a2 2 0 0 1 2 2v13a2 2 0 0 1-2 2h-13a2 2 0 0 1-2-2v-13a2 2 0 0 1 2-2zm0 2h-13v13h13v-13zm-3 8a1 1 0 0 1 .117 1.993l-.117.007h-7a1 1 0 0 1-.117-1.993L5.5 10.5h7zm0-5a1 1 0 0 1 .117 1.993L12.5 7.5h-7a1 1 0 0 1-.117-1.993L5.5 5.5h7z"/>
</symbol><symbol id="icon-wand" viewBox="0 0 23 23">
    <path d="M13.313 5.302a1 1 0 0 1 1.414 0l2.97 2.97a1 1 0 0 1 0 1.414l-2.864 2.867a1.01 1.01 0 0 1-.281.281l-9.865 9.863a1 1 0 0 1-1.414 0l-2.97-2.97a1 1 0 0 1 0-1.414l9.864-9.867c.036-.054.078-.106.126-.154s.1-.1.154-.126zm-2.3 5.127l-8.6 8.59 1.555 1.555 8.6-8.59-1.555-1.555zm8.498 2.68l.094.083.8.8a1 1 0 0 1-1.32 1.497l-.094-.083-.8-.8a1 1 0 0 1 1.32-1.497zM14.02 7.423l-1.592 1.59 1.555 1.555 1.592-1.59-1.555-1.555zM22 8a1 1 0 0 1 .117 1.993L22 10h-1a1 1 0 0 1-.117-1.993L21 8h1zm-1.593-5.407a1 1 0 0 1 .083 1.32l-.083.094-.8.8a1 1 0 0 1-1.497-1.32l.083-.094.8-.8a1 1 0 0 1 1.414 0zM8.913 2.5l.094.083.8.8a1 1 0 0 1-1.32 1.497l-.094-.083-.8-.8A1 1 0 0 1 8.913 2.5zM14 0a1 1 0 0 1 .993.883L15 1v1a1 1 0 0 1-1.993.117L13 2V1a1 1 0 0 1 1-1z"/>
</symbol><symbol id="icon-wifi" viewBox="0 0 16 11">
    <path d="M7.717 7a2 2 0 1 1 0 4 2 2 0 1 1 0-4zm4.593-1.658a1 1 0 0 1-1.414 1.415 4.5 4.5 0 0 0-6.361 0 1 1 0 1 1-1.414-1.415 6.5 6.5 0 0 1 9.189 0zm2.83-2.145a1 1 0 1 1-1.414 1.414 8.5 8.5 0 0 0-12.019 0A1 1 0 1 1 .292 3.197c4.1-4.1 10.747-4.1 14.847 0z"/>
</symbol></svg>